<svg xmlns="http://www.w3.org/2000/svg" xmlns:xlink="http://www.w3.org/1999/xlink" viewBox="0 0 431.91 393.56"><defs><style>.cls-1{isolation:isolate;}.cls-2{fill:#b5dfea;}.cls-3{fill:#90cedd;}.cls-19,.cls-3{opacity:0.55;}.cls-4{fill:#79c9e8;}.cls-5{fill:#d7f0f9;}.cls-6{fill:#0582c1;}.cls-7{fill:#fff;}.cls-8{fill:#ffbf4d;}.cls-9{fill:#00668e;}.cls-10{fill:#05556d;}.cls-11{fill:#f98d3d;}.cls-12{fill:#ed701b;}.cls-13{fill:none;}.cls-14{fill:#efaa3a;}.cls-15{fill:#f98d2b;opacity:0.29;mix-blend-mode:multiply;}.cls-16{fill:#49b4d6;}.cls-17{fill:#ff9f50;}.cls-18{fill:#f77e2d;}.cls-19{mix-blend-mode:overlay;fill:url(#linear-gradient);}</style><linearGradient id="linear-gradient" x1="237.37" y1="361.34" x2="237.37" y2="337.29" gradientUnits="userSpaceOnUse"><stop offset="0" stop-color="#fff"/><stop offset="0.12" stop-color="#fff" stop-opacity="0.82"/><stop offset="0.3" stop-color="#fff" stop-opacity="0.58"/><stop offset="0.47" stop-color="#fff" stop-opacity="0.37"/><stop offset="0.64" stop-color="#fff" stop-opacity="0.21"/><stop offset="0.78" stop-color="#fff" stop-opacity="0.1"/><stop offset="0.91" stop-color="#fff" stop-opacity="0.02"/><stop offset="1" stop-color="#fff" stop-opacity="0"/></linearGradient></defs><g class="cls-1"><g id="OBJECTS"><path class="cls-2" d="M425.29,393.56A12.73,12.73,0,0,0,438,381c.54-34.64,3.33-85.74-61.92-99.88-52.8-11.43-21.49-105.27-163.69-99.2-102.07,4.35-74.95,90.38-154.32,97.55C5.28,284.27,4.83,351.06,6.86,381.66a12.72,12.72,0,0,0,12.7,11.9Z" transform="translate(-6.28)"/><path class="cls-3" d="M376.1,281.15c-52.8-11.43-21.49-105.27-163.69-99.2-24.27,1-41.23,6.69-54.06,14.81,4.32-.57,8.91-1,13.8-1.17,142.19-6.07,110.89,87.76,163.68,99.2,64.55,14,62.51,64.15,61.94,98.77h27.52A12.73,12.73,0,0,0,438,381C438.56,346.39,441.35,295.29,376.1,281.15Z" transform="translate(-6.28)"/><rect class="cls-4" x="143.73" width="2.24" height="163.8"/><rect class="cls-4" x="304.7" width="2.24" height="188.96"/><path class="cls-5" d="M313,178,146.06,158.46a13,13,0,0,0-14.42,11.41L119.18,276.63a13,13,0,0,0,11.41,14.42l166.94,19.49A13,13,0,0,0,312,299.13l12.46-106.76A13,13,0,0,0,313,178Z" transform="translate(-6.28)"/><path class="cls-6" d="M323.19,202.94l1.23-10.57A13,13,0,0,0,313,178L146.06,158.46a13,13,0,0,0-14.42,11.41l-1.24,10.57Z" transform="translate(-6.28)"/><path class="cls-4" d="M157.41,245.08l21.17-37.29a6.82,6.82,0,0,1,6.73-3.41h0a6.83,6.83,0,0,1,6,7.58l-4.4,37.72.19,0a4.72,4.72,0,0,1,4.15,5.25h0a4.73,4.73,0,0,1-5.25,4.16l-.19,0L185,266a5.12,5.12,0,0,1-5.68,4.49h0a5.11,5.11,0,0,1-4.48-5.67l.8-6.87-15.24-1.78a4.74,4.74,0,0,1-4.16-5.26l.4-3.46A6.28,6.28,0,0,1,157.41,245.08Zm19.41,2.79,2.73-23.39a.15.15,0,0,0-.28-.09l-12.5,22.06a.62.62,0,0,0,.47.93l8.89,1A.63.63,0,0,0,176.82,247.87Z" transform="translate(-6.28)"/><path class="cls-4" d="M250.81,256,272,218.69a6.85,6.85,0,0,1,6.74-3.41h0a6.84,6.84,0,0,1,6,7.58l-4.4,37.72.18,0a4.73,4.73,0,0,1,4.16,5.25h0A4.74,4.74,0,0,1,279.4,270l-.19,0-.8,6.87a5.12,5.12,0,0,1-5.68,4.48h0a5.12,5.12,0,0,1-4.49-5.67l.81-6.87L253.81,267a4.74,4.74,0,0,1-4.16-5.26l.4-3.46A6.1,6.1,0,0,1,250.81,256Zm19.41,2.79L273,235.38a.15.15,0,0,0-.28-.09l-12.51,22.06a.63.63,0,0,0,.48.93l8.88,1A.63.63,0,0,0,270.22,258.77Z" transform="translate(-6.28)"/><path class="cls-4" d="M208.82,223.14c1.23-10.53,7.49-15.91,17.65-14.72s15,7.85,13.78,18.39l-4,34.25C235,271.6,228.77,277,218.61,275.79s-15-7.86-13.78-18.4Zm6.28,36.12c-.55,4.71,1.31,6.73,4.6,7.12s5.58-1.16,6.13-5.87L230,225c.55-4.71-1.32-6.74-4.61-7.12s-5.57,1.16-6.12,5.86Z" transform="translate(-6.28)"/><path class="cls-7" d="M150.08,173.21a3.49,3.49,0,1,1-3.06-3.87A3.49,3.49,0,0,1,150.08,173.21Z" transform="translate(-6.28)"/><path class="cls-4" d="M166.83,175.17a3.49,3.49,0,1,1-3.07-3.88A3.49,3.49,0,0,1,166.83,175.17Z" transform="translate(-6.28)"/><path class="cls-8" d="M184.19,177.19a3.5,3.5,0,1,1-3.07-3.87A3.5,3.5,0,0,1,184.19,177.19Z" transform="translate(-6.28)"/><path class="cls-9" d="M117,298.79A89.55,89.55,0,0,0,115.15,319c.34,9.15-.75,69.31-.75,69.31h7.35s10.46-47.11,10.85-50.83,5.65-40.93,5.65-40.93Z" transform="translate(-6.28)"/><path class="cls-6" d="M121.91,296.05s1.7,12.85,4.57,22,17,70.28,17,70.28h7.35s-1.36-47.11-1.86-50.83-4.23-40.93-4.23-40.93Z" transform="translate(-6.28)"/><path class="cls-6" d="M144.09,388.31v5.13h14a.8.8,0,0,0,.44-1.47c-2.05-1.36-5.32-3.24-8.37-3.66Z" transform="translate(-6.28)"/><path class="cls-6" d="M114.77,388.31v5.13h14a.8.8,0,0,0,.44-1.47c-2-1.36-5.32-3.24-8.36-3.66Z" transform="translate(-6.28)"/><path class="cls-9" d="M140,236.26s4.81-7.31-.71-8c-4.24-.55-6,.71-6,.71s-4.88-.53-7.55,1.78c-1.84,1.59-8.56,13.9,2.31,18.35s8.55-7,8.55-7Z" transform="translate(-6.28)"/><path class="cls-10" d="M139.3,228.24c-4.24-.55-6,.71-6,.71s-4.88-.53-7.55,1.78c-1.84,1.59-8.56,13.9,2.31,18.35,5.11,2.1,7.31.69,8.2-1.4-10.31,2.91-11.43-9.52-9.73-13.06s5.87-1.93,5.87-1.93c1.62-4.09,6.91-3.64,9.09-3.33A3,3,0,0,0,139.3,228.24Z" transform="translate(-6.28)"/><path class="cls-11" d="M133.24,239.82s-1.43-1.43-2.5,0-.35,4.63,1.43,4.81c0,0-.53,4.63-4.1,4.45v3.75h8.38V250s5.16-2.13,5-6.41a23.35,23.35,0,0,0-1.42-7.3A11.67,11.67,0,0,1,133.24,239.82Z" transform="translate(-6.28)"/><path class="cls-12" d="M134.52,251.17c.83.35.68.87.72,1.66h1.21V250s-2,.65-5-1A13.14,13.14,0,0,0,134.52,251.17Z" transform="translate(-6.28)"/><path class="cls-11" d="M136.23,233s-4.34-1.73-4.84-.43c-.34.85.51,1.58,1.67,2.32l-1,.16a.27.27,0,0,0-.13.48,5.77,5.77,0,0,0,2.71.44Z" transform="translate(-6.28)"/><polygon class="cls-13" points="104.14 280.07 109.95 298.82 109.85 297.87 109.95 298.82 111.92 271.52 104.14 280.07"/><path class="cls-8" d="M167.23,243.87c-8.28-6.13-30.88-11-30.88-11l-1.87,3.4s20.53,8,19.17,9.14c-.79.7-10.82,5.29-14.22,6.84a5.47,5.47,0,0,1-2.33.48l-10.39-.06a16.41,16.41,0,0,0-13.4,5.88c-5.27,6.07-14.23,20.12-14.23,20.12l15.09,22.2,1.68,2.45v.18l1.48.15c4.86.45,20.41,1.68,28.64-.07l.23-.05-.39-36.42a140.92,140.92,0,0,0,21.66-21A1.52,1.52,0,0,0,167.23,243.87Zm-50.66,49.67-1.47-3.22-4.69-10.25,7.78-8.72-1.39,19.13Z" transform="translate(-6.28)"/><polygon class="cls-14" points="108.82 290.32 110.3 293.54 109.58 303.25 109.57 303.28 107.9 300.83 108.82 290.32"/><path class="cls-15" d="M142.3,265.76c-1.4,1-1.05,10-1.39,15.65-.58,9.43-1.14,17.59-.73,22.86a41.09,41.09,0,0,0,5.79-.73l.23-.05-.39-36.42a140.92,140.92,0,0,0,21.66-21,1.52,1.52,0,0,0-.24-2.23A185.47,185.47,0,0,1,142.3,265.76Z" transform="translate(-6.28)"/><path class="cls-9" d="M149,337.49c-.37-2.69-2.41-22.81-3.52-33.81l-5.28.59s7.71,63.33,8.21,84.05h2.45S149.48,341.21,149,337.49Z" transform="translate(-6.28)"/><path class="cls-6" d="M115.12,240.86l-1.6-2.86a10.76,10.76,0,1,0-1.86,2.54Z" transform="translate(-6.28)"/><path class="cls-7" d="M98.39,232h.42v1.5c0,.46.14.66.46.66s.43-.13.66-.42V232h.42v2.46H100l0-.39h0a1,1,0,0,1-.81.45c-.52,0-.75-.34-.75-1Z" transform="translate(-6.28)"/><path class="cls-7" d="M102.1,234.65v.83h-.42V232H102l0,.28h0a1.23,1.23,0,0,1,.78-.34c.63,0,1,.49,1,1.25s-.5,1.33-1.06,1.33a1.1,1.1,0,0,1-.68-.29Zm.6-.49c.4,0,.7-.37.7-1s-.18-.9-.65-.9a1,1,0,0,0-.65.33v1.29A1,1,0,0,0,102.7,234.16Z" transform="translate(-6.28)"/><path class="cls-7" d="M104.93,233.89a1.11,1.11,0,0,0,.72.29c.33,0,.49-.17.49-.38s-.29-.36-.56-.47-.74-.29-.74-.7.32-.7.85-.7a1.17,1.17,0,0,1,.76.28l-.2.26a.87.87,0,0,0-.56-.22c-.31,0-.45.17-.45.36s.27.31.55.42.75.28.75.74-.32.74-.9.74a1.5,1.5,0,0,1-.92-.34Z" transform="translate(-6.28)"/><path class="cls-7" d="M107.84,233.87a.32.32,0,1,1-.31.32A.31.31,0,0,1,107.84,233.87Z" transform="translate(-6.28)"/><path class="cls-7" d="M109.6,233.87a.32.32,0,1,1-.3.32A.31.31,0,0,1,109.6,233.87Z" transform="translate(-6.28)"/><path class="cls-4" d="M73.78,370.49s-2.26-2.11-.74-10.13,5.37-15.73,3.48-24.44-16.73-30.65-16.77-32.11S55.17,329.34,62.84,340s8.59,14.33,8.25,19.92.08,10.1.92,11.4Z" transform="translate(-6.28)"/><path class="cls-16" d="M72.38,354.36c-.9,3.58-1.43,12.55,0,14.7.13.2.33.09.56-.29-.43-1.48-.72-4.08.11-8.41,1.52-8,5.37-15.73,3.48-24.44s-16.73-30.65-16.77-32.11c0,0,2.23,18.28,9.76,30.87C74.9,343.69,73.27,350.78,72.38,354.36Z" transform="translate(-6.28)"/><path class="cls-4" d="M76.49,369.94s-4.36-10.88,3-20.3,19.2-21.52,19.43-26.31c0,0,3,22.75-6.57,29.19S76,360,77.68,369.9Z" transform="translate(-6.28)"/><path class="cls-16" d="M86.86,348c-10.72,7.8-11.59,16.79-9.93,20.95a1,1,0,0,0,.7.63c-1.44-9.56,5.25-10.65,14.74-17s6.57-29.19,6.57-29.19S97.58,340.14,86.86,348Z" transform="translate(-6.28)"/><path class="cls-4" d="M69.32,370.18a37.89,37.89,0,0,0,.65-12c-.74-6.22-7.24-9.72-13.31-16.29-3.12-3.38-4-21.25-2.11-22.91,0,0-10.72,13-9.06,22.5s19.13,15.69,20.75,20.28a25.61,25.61,0,0,1,1.49,8.46Z" transform="translate(-6.28)"/><path class="cls-16" d="M50.93,324.11c-3.55,9.59.09,21.21,11.85,28.43,8.67,5.31,5.91,16.36,5.91,16.36l1.41-4.36A34.17,34.17,0,0,0,70,358.2c-.74-6.22-7.24-9.72-13.31-16.29-3-3.26-4-20-2.3-22.67A56.36,56.36,0,0,0,50.93,324.11Z" transform="translate(-6.28)"/><path class="cls-16" d="M54.36,319.24l.19-.24A1,1,0,0,0,54.36,319.24Z" transform="translate(-6.28)"/><path class="cls-4" d="M78.73,369.46s2.51-9.32,8.72-10.57,13.35-10.44,13.74-12.24C101.19,346.65,100.14,364,78.73,369.46Z" transform="translate(-6.28)"/><path class="cls-16" d="M87.1,362c-3.81,1.9-5.39,4.46-5.95,6.79,19.06-6.13,20-22.11,20-22.11a7,7,0,0,1-1,1.82C98.35,351.75,93.82,358.61,87.1,362Z" transform="translate(-6.28)"/><path class="cls-8" d="M92.17,366H59.68l3.86,24.27a3.79,3.79,0,0,0,3.74,3.2H84.57a3.79,3.79,0,0,0,3.74-3.2Z" transform="translate(-6.28)"/><polygon class="cls-17" points="85.26 370.05 85.89 366.03 53.4 366.03 54.04 370.05 85.26 370.05"/><path class="cls-17" d="M84.3,366,80.44,390.3a3.79,3.79,0,0,1-3.74,3.2h7.87a3.79,3.79,0,0,0,3.74-3.2L92.17,366Z" transform="translate(-6.28)"/><rect class="cls-8" x="163.16" y="322.75" width="146.86" height="29.86"/><rect class="cls-15" x="163.16" y="322.75" width="146.86" height="7.25"/><polygon class="cls-18" points="175.93 322.75 189.33 322.75 185.74 330 172.33 330 175.93 322.75"/><polygon class="cls-18" points="206.13 322.75 219.53 322.75 215.94 330 202.54 330 206.13 322.75"/><polygon class="cls-18" points="236.33 322.75 249.73 322.75 246.14 330 232.74 330 236.33 322.75"/><polygon class="cls-18" points="266.53 322.75 279.92 322.75 276.33 330 262.93 330 266.53 322.75"/><polygon class="cls-18" points="310.02 322.75 310.02 322.95 306.52 330 293.13 330 296.73 322.75 310.02 322.75"/><rect class="cls-4" x="181.44" y="352.61" width="10.35" height="40.83"/><rect class="cls-16" x="189.44" y="352.61" width="2.35" height="40.83"/><rect class="cls-4" x="282.19" y="352.61" width="10.35" height="40.83"/><rect class="cls-16" x="289.48" y="352.61" width="3.06" height="40.83"/><rect class="cls-16" x="181.44" y="352.58" width="10.35" height="5.14"/><rect class="cls-16" x="282.19" y="352.58" width="10.35" height="5.14"/><rect class="cls-4" x="181.44" y="318.08" width="10.35" height="4.64"/><rect class="cls-16" x="189.44" y="318.08" width="2.35" height="4.64"/><rect class="cls-4" x="282.19" y="318.08" width="10.35" height="4.64"/><rect class="cls-16" x="289.48" y="318.08" width="3.06" height="4.64"/><rect class="cls-16" x="181.44" y="322.14" width="10.35" height="0.58"/><rect class="cls-16" x="282.19" y="322.14" width="10.35" height="0.58"/><polygon class="cls-6" points="189.33 322.75 174.52 352.61 163.16 352.61 163.16 348.49 175.93 322.75 189.33 322.75"/><polygon class="cls-6" points="206.13 322.75 191.32 352.61 204.72 352.61 219.53 322.75 206.13 322.75"/><polygon class="cls-6" points="249.73 322.75 234.92 352.61 221.52 352.61 236.33 322.75 249.73 322.75"/><polygon class="cls-6" points="279.92 322.75 265.12 352.61 251.72 352.61 266.53 322.75 279.92 322.75"/><polygon class="cls-6" points="296.73 322.75 281.92 352.61 295.31 352.61 310.02 322.95 296.73 322.75"/><polygon class="cls-9" points="189.33 322.75 185.74 330 172.33 330 175.93 322.75 189.33 322.75"/><polygon class="cls-9" points="219.53 322.75 215.94 330 202.54 330 206.13 322.75 219.53 322.75"/><polygon class="cls-9" points="249.73 322.75 246.14 330 232.74 330 236.33 322.75 249.73 322.75"/><polygon class="cls-9" points="279.92 322.75 276.33 330 262.93 330 266.53 322.75 279.92 322.75"/><polygon class="cls-9" points="310.02 322.95 306.52 330 293.13 330 296.73 322.75 310.02 322.95"/><rect class="cls-19" x="167.25" y="335.67" width="140.24" height="14.94"/><circle class="cls-8" cx="192.63" cy="311.6" r="9.23" transform="translate(-53.83 34.99) rotate(-9.24)"/><path class="cls-6" d="M196.81,311.6a4.19,4.19,0,1,0-4.18,4.19A4.18,4.18,0,0,0,196.81,311.6Z" transform="translate(-6.28)"/><circle class="cls-8" cx="293.59" cy="311.6" r="9.23" transform="translate(-52.52 51.21) rotate(-9.24)"/><path class="cls-6" d="M297.77,311.6a4.19,4.19,0,1,0-4.18,4.19A4.18,4.18,0,0,0,297.77,311.6Z" transform="translate(-6.28)"/><path class="cls-8" d="M371.94,390.27H325.17l7.15-17.34h0l2.88-7L336,364l1.29-3.13.27-.63,2.88-7L341,352l5.1-12.38a2.7,2.7,0,0,1,5,0l5.1,12.38.53,1.27,2.88,7,.26.63,1.3,3.13.79,1.91,2.88,7h0Z" transform="translate(-6.28)"/><polygon class="cls-15" points="321.96 382.84 318.89 390.27 365.67 390.27 362.6 382.84 321.96 382.84"/><rect class="cls-4" x="315.15" y="385.83" width="53.57" height="7.57"/><rect class="cls-16" x="357.15" y="385.83" width="11.57" height="7.57"/><path class="cls-15" d="M370.1,385.83h-6.62l-5.31-12.89h0l-2.88-7L354.5,364l-1.29-3.12-.27-.64-2.87-7-.53-1.27-4.29-10.42.8-2a2.7,2.7,0,0,1,5,0l5.1,12.38.53,1.27,2.88,7,.26.64,1.3,3.12.79,1.92,2.88,7h0Z" transform="translate(-6.28)"/><polygon class="cls-6" points="353.28 360.25 331.27 360.25 334.15 353.25 350.4 353.25 353.28 360.25"/><polygon class="cls-6" points="358.51 372.92 358.51 372.93 326.04 372.93 326.04 372.92 328.92 365.92 355.63 365.92 358.51 372.92"/><polygon class="cls-9" points="353.28 360.25 346.67 360.25 343.79 353.25 350.4 353.25 353.28 360.25"/><polygon class="cls-9" points="358.51 372.92 358.51 372.93 351.89 372.93 351.89 372.92 349.01 365.92 355.63 365.92 358.51 372.92"/><path class="cls-5" d="M73.79,220.21a7,7,0,0,0,7-6,14.91,14.91,0,0,0,.13-1.9,14,14,0,0,0-14-14c-.32,0-.63,0-.94,0a14.83,14.83,0,0,0-29.6,1.26c0,.36,0,.72,0,1.08a14.83,14.83,0,0,0-22,11.87c0,.06,0,.12,0,.18a7.07,7.07,0,0,0,7.08,7.44Z" transform="translate(-6.28)"/><path class="cls-5" d="M406.93,231.17c11,0,11.65-16.61.62-17.15l-.91,0a18.15,18.15,0,0,0-5.64.89,18.94,18.94,0,0,0-37.46.59,17.57,17.57,0,0,0-11.9-1.15C342,216.81,344,231.17,354,231.17Z" transform="translate(-6.28)"/><path class="cls-5" d="M274.37,149.32c11,0,11.65-16.6.62-17.14l-.9,0a18.39,18.39,0,0,0-5.64.88,18.93,18.93,0,0,0-37.45.6,17.51,17.51,0,0,0-11.9-1.16c-9.65,2.49-7.63,16.84,2.34,16.84Z" transform="translate(-6.28)"/><circle class="cls-8" cx="92.4" cy="153.56" r="26.45"/><path class="cls-17" d="M98.9,127.11a26.46,26.46,0,0,1-14.51,48.58h-.21A26.45,26.45,0,1,0,98.9,127.11Z" transform="translate(-6.28)"/></g></g></svg>